<?xml version="1.0" encoding="UTF-8"?>
<svg width="320px" height="320px" viewBox="0 0 320 320" version="1.1" xmlns="http://www.w3.org/2000/svg" xmlns:xlink="http://www.w3.org/1999/xlink">
    <!-- Generator: Sketch 42 (36781) - http://www.bohemiancoding.com/sketch -->
    <title>logo</title>
    <desc>Created with Sketch.</desc>
    <defs></defs>
    <g id="Page-1" stroke="none" stroke-width="1" fill="none" fill-rule="evenodd">
        <g id="logo">
            <rect id="Rectangle" fill="#1D1D1F" x="0" y="0" width="320" height="320"></rect>
            <path d="M233.578125,249.953125 C237.515645,252.671889 242.390596,254.734368 248.203125,256.140625 L248.203125,261.90625 C239.10933,261.343747 227.625069,261.0625 213.75,261.0625 C203.343698,261.0625 193.453172,261.343747 184.078125,261.90625 L184.078125,256.140625 C188.578148,255.953124 191.906239,255.39063 194.0625,254.453125 C196.218761,253.51562 197.296875,252.06251 197.296875,250.09375 C197.296875,248.312491 196.31251,246.015639 194.34375,243.203125 L152.296875,179.78125 C148.453106,173.87497 145.101577,169.515639 142.242188,166.703125 C139.382798,163.890611 136.500015,161.945318 133.59375,160.867188 C130.687485,159.789057 126.843774,159.109376 122.0625,158.828125 L122.0625,231.390625 C122.0625,238.609411 122.648432,243.859359 123.820312,247.140625 C124.992193,250.421891 127.148422,252.671869 130.289062,253.890625 C133.429703,255.109381 138.468715,255.859374 145.40625,256.140625 L145.40625,261.90625 C136.593706,261.343747 124.406328,261.0625 108.84375,261.0625 C92.3436675,261.0625 80.0625403,261.343747 72,261.90625 L72,256.140625 C78.9375347,255.859374 83.9765468,255.109381 87.1171875,253.890625 C90.2578282,252.671869 92.4140566,250.421891 93.5859375,247.140625 C94.7578184,243.859359 95.34375,238.609411 95.34375,231.390625 L95.34375,88.515625 C95.34375,81.2968389 94.7578184,76.0468914 93.5859375,72.765625 C92.4140566,69.4843586 90.2578282,67.2343811 87.1171875,66.015625 C83.9765468,64.7968689 78.9375347,64.0468764 72,63.765625 L72,58 C79.9687898,58.5625028 92.249917,58.84375 108.84375,58.84375 C124.406328,58.84375 136.593706,58.5625028 145.40625,58 L145.40625,63.765625 C138.468715,64.0468764 133.429703,64.7968689 130.289062,66.015625 C127.148422,67.2343811 124.992193,69.4843586 123.820312,72.765625 C122.648432,76.0468914 122.0625,81.2968389 122.0625,88.515625 L122.0625,153.0625 C135.937569,152.593748 146.90621,147.203177 154.96875,136.890625 L182.53125,101.734375 C192.375049,89.2655627 197.296875,80.0781545 197.296875,74.171875 C197.296875,67.5155917 191.34381,64.0468764 179.4375,63.765625 L179.4375,58 C190.406305,58.5625028 201.42182,58.84375 212.484375,58.84375 C223.171928,58.84375 231.374971,58.5625028 237.09375,58 L237.09375,63.765625 C230.718718,64.7031297 224.742215,66.7656091 219.164062,69.953125 C213.58591,73.1406409 208.218776,78.0624667 203.0625,84.71875 L156.09375,144.90625 L222.890625,238.5625 C226.078141,243.437524 229.640605,247.234361 233.578125,249.953125 Z" id="K" fill="#FFFFFF"></path>
        </g>
    </g>
</svg>