<?xml version="1.0" encoding="UTF-8"?>
<svg width="135px" height="135px" viewBox="0 0 135 135" version="1.1" xmlns="http://www.w3.org/2000/svg" xmlns:xlink="http://www.w3.org/1999/xlink">
    <!-- Generator: Sketch 42 (36781) - http://www.bohemiancoding.com/sketch -->
    <title>logo_white</title>
    <desc>Created with Sketch.</desc>
    <defs>
        <circle id="path-1" cx="67.5" cy="67.5" r="67.5"></circle>
        <mask id="mask-2" maskContentUnits="userSpaceOnUse" maskUnits="objectBoundingBox" x="0" y="0" width="135" height="135" fill="white">
            <use xlink:href="#path-1"></use>
        </mask>
    </defs>
    <g id="logo" stroke="none" stroke-width="1" fill="none" fill-rule="evenodd">
        <g id="152---iPad" transform="translate(-17.000000, -9.000000)">
            <g id="logo_white" transform="translate(17.000000, 9.000000)">
                <use id="Oval" stroke="#FFFFFF" mask="url(#mask-2)" stroke-width="10" xlink:href="#path-1"></use>
                <path d="M74.25,32.0009766 C76.3333437,32.6682976 78.4166563,33.6204365 80.5,34.8574219 C82.0625078,35.801437 83.1855435,36.2734375 83.8691406,36.2734375 C84.4876333,36.2734375 84.9596338,35.931644 85.2851562,35.2480469 C85.6106787,34.5644497 85.8873687,33.4414141 86.1152344,31.8789062 L88.4101562,31.8789062 C88.0520815,36.0130415 87.8730469,43.613877 87.8730469,54.6816406 L85.578125,54.6816406 C85.3502593,51.0357891 84.5527412,47.5934407 83.1855469,44.3544922 C81.8183525,41.1155437 79.8896609,38.4788513 77.3994141,36.4443359 C74.9091672,34.4098206 71.9713711,33.3925781 68.5859375,33.3925781 C66.4374893,33.3925781 64.5332114,33.807613 62.8730469,34.6376953 C61.2128823,35.4677776 59.91895,36.6477788 58.9912109,38.1777344 C58.0634719,39.7076899 57.5996094,41.5143125 57.5996094,43.5976562 C57.5996094,45.941418 58.1204375,47.9759028 59.1621094,49.7011719 C60.2037812,51.4264409 61.6441965,53.0214771 63.4833984,54.4863281 C65.3226003,55.9511792 68.1627412,57.9693882 72.0039062,60.5410156 C73.1106826,61.2246128 74.0709595,61.8593721 74.8847656,62.4453125 C78.7584829,65.0169399 81.834624,67.2792871 84.1132812,69.2324219 C86.3919385,71.1855566 88.2392507,73.4479038 89.6552734,76.0195312 C91.0712961,78.5911587 91.7792969,81.5859204 91.7792969,85.0039062 C91.7792969,89.2356982 90.6725371,92.8163916 88.4589844,95.7460938 C86.2454316,98.6757959 83.2669458,100.864902 79.5234375,102.313477 C75.7799292,103.762052 71.5970283,104.486328 66.9746094,104.486328 C63.2636533,104.486328 60.1875122,104.152673 57.7460938,103.485352 C55.3046753,102.818031 53.0260522,101.914719 50.9101562,100.775391 C49.4127529,99.8313755 48.2734414,99.359375 47.4921875,99.359375 C46.8736948,99.359375 46.4016943,99.7093064 46.0761719,100.40918 C45.7506494,101.109053 45.4902354,102.223951 45.2949219,103.753906 L43,103.753906 C43.260418,99.5872188 43.390625,90.5866577 43.390625,76.7519531 L45.6855469,76.7519531 C46.1412783,84.2064175 47.801418,90.2529065 50.6660156,94.8916016 C53.5306133,99.5302966 57.9413765,101.849609 63.8984375,101.849609 C66.2747515,101.849609 68.3987537,101.426437 70.2705078,100.580078 C72.142262,99.7337197 73.615229,98.4723391 74.6894531,96.7958984 C75.7636772,95.1194578 76.3007812,93.076835 76.3007812,90.6679688 C76.3007812,88.0637891 75.6904358,85.7200625 74.4697266,83.6367188 C73.2490173,81.553375 71.6051536,79.6572351 69.5380859,77.9482422 C67.4710183,76.2392493 64.7285327,74.2780059 61.3105469,72.0644531 C57.3066206,69.5253779 54.1084104,67.2874446 51.7158203,65.3505859 C49.3232302,63.4137273 47.3538489,61.1188284 45.8076172,58.4658203 C44.2613855,55.8128123 43.4882812,52.7448091 43.4882812,49.2617188 C43.4882812,45.2252402 44.5136616,41.8398574 46.5644531,39.1054688 C48.6152446,36.3710801 51.3333164,34.3365952 54.71875,33.0019531 C58.1041836,31.667311 61.8313599,31 65.9003906,31 C69.383481,31 72.1666563,31.3336555 74.25,32.0009766 Z" id="S" fill="#FFFFFF"></path>
            </g>
        </g>
    </g>
</svg>