<?xml version="1.0" ?><!DOCTYPE svg  PUBLIC '-//W3C//DTD SVG 1.1//EN'  'http://www.w3.org/Graphics/SVG/1.1/DTD/svg11.dtd'><svg enable-background="new 0 0 512 512" height="512px" version="1.1" viewBox="0 0 512 512" width="512px" xml:space="preserve" xmlns="http://www.w3.org/2000/svg" xmlns:xlink="http://www.w3.org/1999/xlink"><g><g id="Guides"/><g id="Layer_2"><g><path d="M507,256.879c0,138.066-111.934,250-250,250c-138.067,0-250-111.934-250-250      c0-138.067,111.933-250,250-250C395.066,6.879,507,118.812,507,256.879L507,256.879z M507,256.879" fill="#F06898"/><path d="M257,98.118c-87.671,0-158.978,71.221-158.978,158.761S169.329,415.64,257,415.64      c87.649,0,158.956-71.221,158.956-158.761S344.649,98.118,257,98.118L257,98.118z M361.6,173.035      c18.126,22.478,29.159,50.877,29.659,81.798c-6.027-1.24-31.596-6.006-62.125-6.006c-9.856,0-20.215,0.503-30.616,1.784      c-0.87-2.135-1.762-4.268-2.676-6.416c-2.698-6.335-5.614-12.624-8.617-18.825C334.226,206.001,356.899,179.131,361.6,173.035      L361.6,173.035z M257,122.968c33.858,0,64.823,12.577,88.476,33.317c-3.742,5.092-24.044,30.483-69.37,47.605      c-20.977-38.357-43.934-70.11-49.396-77.462C236.459,124.165,246.577,122.968,257,122.968L257,122.968z M199.314,135.98      c4.613,6.378,27.613,38.472,49.134,76.505c-57.751,15.169-109.017,16.173-121.398,16.173h-1.306      C134.622,187.682,162.301,153.628,199.314,135.98L199.314,135.98z M122.7,257.097c0-1.11,0-2.217,0.038-3.311      c0.808,0,1.983,0,3.528,0c16.668,0,74.528-1.371,134.15-19.056c3.612,7.069,7.051,14.25,10.249,21.431      c-1.507,0.433-2.98,0.868-4.461,1.346c-67.129,21.676-104.012,79.079-109.691,88.457      C135.471,322.268,122.7,291.15,122.7,257.097L122.7,257.097z M257,391.203c-30.812,0-59.23-10.423-81.926-27.918      c3.852-7.529,31.683-57.664,105.252-83.275c0.044,0,0.088-0.017,0.152-0.044c18.431,48.024,26.243,88.324,28.397,100.814      C292.904,387.504,275.387,391.203,257,391.203L257,391.203z M333.072,367.571c-1.806-10.336-9.052-48.11-25.741-94.177      c9.356-1.458,18.474-2.045,27.025-2.045c28.07,0,50.026,6.158,55.118,7.703C383.425,315.652,362.465,347.291,333.072,367.571      L333.072,367.571z M333.072,367.571" fill="#F2F2F2"/></g></g></g></svg>